<?xml version="1.0" standalone="no"?>
<!DOCTYPE svg PUBLIC "-//W3C//DTD SVG 20010904//EN"
 "http://www.w3.org/TR/2001/REC-SVG-20010904/DTD/svg10.dtd">
<svg version="1.0" xmlns="http://www.w3.org/2000/svg"
 width="1200.000000pt" height="676.000000pt" viewBox="0 0 1200.000000 676.000000"
 preserveAspectRatio="xMidYMid meet">

<g transform="translate(0.000000,676.000000) scale(0.100000,-0.100000)"
fill="#000000" stroke="none">
<path d="M945 6735 c-16 -14 -40 -25 -53 -25 -13 0 -22 -5 -20 -12 1 -7 -10
-34 -25 -59 -30 -50 -48 -117 -29 -105 17 10 15 -13 -8 -86 -24 -77 -24 -92
-4 -167 20 -72 13 -150 -20 -216 -22 -42 -22 -45 -5 -40 15 5 20 0 25 -24 4
-17 10 -29 14 -26 4 2 5 -17 2 -43 -4 -41 0 -52 23 -80 15 -18 33 -32 41 -32
10 0 14 -13 14 -44 0 -42 -2 -45 -32 -51 -56 -12 -149 -55 -210 -96 -32 -22
-88 -53 -124 -69 -136 -62 -177 -107 -208 -232 -9 -38 -28 -94 -42 -125 -62
-138 -98 -470 -74 -688 12 -105 74 -374 104 -446 7 -19 17 -68 21 -109 7 -79
44 -207 101 -351 l34 -86 -21 -99 c-29 -135 -39 -380 -16 -397 18 -14 19 -51
17 -537 0 -162 2 -387 6 -500 5 -182 4 -216 -14 -300 -11 -52 -23 -131 -27
-175 -4 -44 -16 -123 -26 -175 -18 -84 -31 -235 -55 -600 -5 -87 -10 -109 -28
-128 -17 -19 -21 -36 -21 -94 0 -59 3 -72 22 -87 l21 -18 -24 -31 c-14 -17
-38 -64 -55 -104 -25 -60 -45 -88 -119 -164 -50 -50 -90 -96 -90 -103 0 -8 91
-11 330 -11 l331 0 -5 128 c-3 70 -8 141 -12 159 -6 29 -3 34 34 57 57 36 70
79 76 256 2 80 11 186 20 235 17 97 36 411 36 590 0 151 19 265 72 430 49 151
62 199 138 520 68 290 126 487 133 455 3 -14 22 -117 42 -230 19 -113 51 -270
71 -350 19 -80 41 -181 48 -225 12 -71 50 -220 91 -355 8 -25 17 -72 20 -105
4 -33 13 -89 21 -125 18 -82 32 -211 44 -415 12 -194 23 -297 46 -434 15 -85
16 -113 6 -158 -9 -44 -9 -62 3 -96 24 -70 87 -179 105 -184 20 -5 30 -43 30
-109 l0 -44 236 0 235 0 -7 23 c-11 38 -46 101 -71 131 -22 27 -24 35 -17 93
6 58 4 70 -24 131 -42 91 -52 164 -52 390 0 209 -21 421 -65 662 -54 295 -57
346 -56 790 1 306 -2 456 -13 572 -16 163 -13 218 10 218 8 0 14 8 14 18 -1
71 -23 278 -40 376 -17 103 -18 120 -6 130 8 6 24 35 35 63 11 29 36 83 54
120 48 96 64 150 91 309 13 76 35 184 48 239 22 94 23 117 21 410 -2 421 -21
573 -94 722 -56 116 -186 202 -376 248 -112 27 -221 70 -240 94 -19 22 -16 58
7 89 21 29 100 269 100 305 0 12 14 42 30 67 16 25 30 50 30 57 0 6 6 13 13
16 9 3 12 34 12 113 -1 118 2 111 -77 239 -44 71 -46 76 -20 60 l27 -18 -29
32 c-25 26 -27 31 -12 31 15 0 16 3 6 15 -10 13 -52 15 -264 15 l-251 -1 -30
-24z m-81 -804 c-3 -16 -2 -31 3 -34 5 -3 9 3 9 15 -1 28 20 34 27 8 7 -26 -3
-90 -13 -90 -12 0 -60 59 -60 74 0 12 28 56 35 56 3 0 2 -13 -1 -29z m513
-333 c-14 -51 -30 -145 -37 -208 -6 -63 -28 -223 -48 -355 l-37 -240 -6 230
c-3 127 -12 272 -19 322 -10 76 -10 102 0 139 12 41 11 48 -7 72 -25 34 -85
42 -115 15 -33 -30 -38 -47 -24 -89 11 -32 11 -61 0 -159 -11 -105 -32 -444
-35 -567 -1 -41 -1 -42 -10 -13 -14 51 -88 475 -98 565 -5 47 -13 132 -16 190
-4 57 -11 127 -15 155 -4 27 -6 52 -5 54 2 1 21 -11 42 -28 50 -40 143 -73
208 -73 61 -1 128 29 187 82 39 35 44 37 52 20 6 -13 0 -50 -17 -112z"/>
<path d="M5822 6730 c-48 -34 -95 -94 -126 -160 -19 -40 -21 -62 -21 -216 0
-150 2 -174 18 -191 9 -11 17 -29 17 -41 0 -11 5 -24 11 -27 5 -4 15 -18 20
-32 5 -14 17 -27 27 -30 32 -9 62 -91 62 -168 l0 -70 -48 -46 c-37 -36 -70
-55 -152 -87 -58 -22 -136 -48 -175 -58 -100 -25 -235 -85 -256 -114 -11 -14
-30 -79 -44 -150 -14 -69 -32 -150 -40 -180 -8 -30 -15 -68 -15 -85 0 -16 -9
-66 -19 -110 -10 -44 -22 -105 -26 -135 -3 -30 -17 -95 -30 -145 -71 -271 -79
-432 -31 -680 13 -71 34 -183 46 -249 11 -65 32 -145 45 -179 14 -33 36 -101
49 -151 30 -110 61 -184 69 -162 3 8 4 27 1 43 -5 28 -4 27 35 -13 23 -23 55
-47 72 -54 27 -12 30 -17 25 -44 -3 -17 -11 -82 -17 -144 -10 -98 -10 -126 5
-205 10 -56 16 -132 15 -192 -2 -57 7 -185 20 -295 36 -297 36 -410 1 -620
-16 -96 -32 -204 -35 -240 -4 -36 -13 -85 -20 -110 -7 -25 -16 -90 -19 -145
-3 -55 -17 -143 -30 -196 -13 -53 -27 -127 -31 -165 -11 -109 -35 -254 -51
-308 -19 -66 -18 -109 4 -154 23 -45 22 -139 -2 -194 -9 -21 -16 -44 -16 -53
0 -8 -17 -34 -39 -58 -42 -46 -61 -78 -61 -101 0 -14 31 -16 261 -16 l261 0
-7 80 -7 80 41 40 c34 33 41 47 41 77 0 22 -9 49 -20 63 -28 36 -25 55 15 97
39 41 44 70 20 126 -20 49 -19 118 4 235 22 115 38 240 55 453 7 86 17 162 21
170 5 7 8 53 7 101 -1 60 5 119 19 181 11 50 29 133 39 182 10 50 29 117 40
150 12 33 27 105 32 160 6 57 19 119 30 144 11 23 23 80 28 126 7 66 17 98 49
163 23 46 45 108 52 146 6 36 15 66 19 66 4 0 18 -55 30 -122 13 -69 44 -184
72 -263 81 -232 155 -505 193 -717 8 -42 25 -109 38 -150 25 -74 48 -235 67
-469 5 -69 16 -144 24 -167 9 -25 18 -99 21 -175 4 -95 12 -151 28 -199 l21
-68 -27 -55 c-15 -30 -27 -62 -27 -71 0 -34 41 -94 74 -108 41 -17 63 -80 46
-136 -5 -19 -10 -59 -10 -87 l0 -53 285 0 c243 0 285 2 285 15 0 30 -24 65
-63 92 -24 16 -48 45 -58 68 -10 22 -36 60 -57 83 -26 28 -38 50 -35 61 3 10
-3 33 -12 50 -14 28 -14 33 0 47 29 29 19 198 -20 339 -28 100 -37 195 -44
450 -6 214 -10 265 -23 290 -10 17 -22 40 -27 53 -21 44 -51 219 -62 347 -5
72 -18 181 -28 243 l-18 113 23 97 c18 77 23 134 26 272 2 96 1 193 0 215 -2
22 0 70 4 107 7 70 14 78 72 78 29 0 29 26 -3 157 l-24 102 40 58 c120 174
110 150 120 275 9 109 11 115 49 170 45 65 52 81 86 193 28 94 31 190 8 223
-13 19 -14 42 -9 145 5 87 3 156 -8 242 -9 66 -18 179 -21 250 -7 165 -41 464
-61 531 -18 62 -29 72 -135 119 -206 92 -497 238 -541 272 l-49 37 0 78 c0 78
24 163 55 198 31 34 50 114 48 202 -4 207 -35 318 -113 402 -71 77 -101 86
-282 86 l-155 0 -41 -30z m50 -976 c51 -42 129 -77 173 -76 51 1 127 26 189
64 26 16 50 27 53 24 3 -3 0 -33 -6 -68 -6 -35 -15 -133 -21 -218 -12 -182
-13 -187 -52 -395 -44 -239 -56 -296 -61 -301 -3 -3 -8 57 -11 133 -4 76 -11
208 -16 293 -14 231 -15 290 -6 343 8 45 6 51 -20 78 -37 39 -74 38 -109 -2
-21 -26 -25 -37 -18 -63 4 -17 7 -51 6 -76 0 -25 -4 -152 -8 -283 -4 -131 -9
-236 -11 -234 -2 2 -19 77 -38 168 -31 148 -53 317 -71 529 -4 41 -9 83 -11
93 -7 24 3 21 38 -9z m917 -1534 c-11 -70 -14 -80 -20 -55 -13 57 -9 176 9
248 l17 72 3 -90 c2 -49 -2 -128 -9 -175z m-1352 -90 c5 -83 4 -87 -36 -170
-22 -47 -41 -76 -41 -65 0 12 -9 38 -20 60 -11 22 -20 53 -20 70 0 17 -7 40
-15 51 -21 27 -18 39 10 52 35 16 85 98 86 141 l1 36 15 -45 c8 -25 17 -83 20
-130z"/>
<path d="M10627 6674 c-4 -4 -35 -7 -70 -6 -80 2 -144 -28 -224 -106 -74 -72
-113 -150 -119 -238 -2 -42 0 -63 6 -59 6 3 10 -2 10 -12 0 -15 2 -16 11 -3
14 20 6 -33 -12 -77 -10 -24 -10 -37 -1 -55 l12 -23 -3 24 c-1 16 4 25 16 27
24 3 33 -20 41 -104 7 -84 22 -117 71 -165 27 -26 35 -42 34 -68 -1 -61 -11
-72 -76 -85 -136 -28 -367 -150 -477 -253 -67 -63 -93 -152 -121 -426 -8 -77
-22 -192 -31 -255 -13 -87 -17 -190 -18 -420 -1 -359 9 -445 84 -761 41 -170
51 -231 56 -338 8 -142 3 -133 75 -145 34 -6 37 -10 43 -48 5 -28 19 -55 45
-83 l38 -41 6 -199 c9 -268 8 -471 -3 -645 -5 -80 -12 -230 -15 -335 -3 -104
-10 -228 -15 -275 -5 -47 -10 -240 -11 -430 -1 -192 -7 -411 -15 -495 -7 -82
-15 -189 -16 -238 -3 -76 -1 -88 15 -93 42 -13 -5 -77 -89 -120 -30 -15 -69
-43 -85 -61 -56 -65 -66 -63 315 -63 l343 0 7 49 c3 27 3 74 0 105 -6 53 -6
56 15 56 12 0 31 5 42 10 18 10 19 26 19 443 0 379 18 886 35 997 3 19 14 148
26 285 11 138 26 324 34 415 15 184 45 411 56 424 4 4 7 -70 8 -165 0 -96 8
-295 17 -444 10 -176 15 -395 14 -630 -2 -416 -2 -822 0 -1014 0 -73 -2 -147
-5 -163 -6 -25 -3 -30 24 -39 23 -8 30 -16 26 -28 -15 -48 -25 -134 -25 -212
l0 -89 430 0 c318 0 430 3 430 12 0 6 -18 28 -41 49 -30 27 -64 45 -124 64
-89 28 -106 42 -149 118 -15 27 -34 51 -42 54 -21 8 -17 20 11 27 16 4 27 16
31 32 8 33 -2 198 -17 279 -7 40 -9 105 -3 195 4 74 6 189 5 255 -1 70 4 162
13 222 9 57 16 152 16 213 l0 110 328 0 328 0 -4 592 c-4 548 -6 595 -23 635
l-18 43 -90 0 -89 0 -5 98 c-2 53 -14 166 -27 249 l-23 153 22 17 22 18 -20
100 c-11 55 -25 150 -30 210 -34 368 -44 454 -61 518 -10 40 -22 119 -25 177
-4 58 -11 121 -16 140 -17 62 -30 182 -38 340 -7 130 -13 166 -35 223 -14 37
-32 106 -40 153 -15 86 -52 182 -84 217 -18 20 -21 22 -220 103 -175 71 -250
109 -289 147 -33 31 -33 32 -32 121 0 60 3 84 9 71 5 -11 9 -14 9 -7 1 13 31
49 31 37 0 -4 7 0 15 9 8 8 15 23 15 33 0 10 9 37 20 61 11 24 22 76 26 115 3
40 10 76 15 82 15 15 11 47 -15 121 -26 77 -67 153 -93 176 -59 53 -215 113
-236 92z m-396 -311 c-12 -20 -14 -14 -5 12 4 9 9 14 11 11 3 -2 0 -13 -6 -23z
m611 -695 c4 -96 -17 -394 -42 -583 -10 -82 -26 -217 -35 -300 -9 -82 -20
-165 -24 -185 -9 -40 -10 -34 -36 325 -8 116 -22 271 -30 345 -18 164 -19 214
-3 256 10 28 9 35 -13 62 -13 17 -31 32 -39 35 -8 2 5 9 30 16 57 17 129 53
155 79 11 12 23 21 27 21 3 1 8 -32 10 -71z m-262 -36 l25 -11 -26 0 c-37 -1
-72 -42 -64 -74 4 -15 13 -31 19 -36 10 -8 10 -32 0 -113 -8 -65 -13 -229 -14
-442 0 -187 -2 -337 -4 -335 -19 19 -125 901 -126 1051 l0 47 83 -38 c45 -21
93 -43 107 -49z m925 -2377 c28 -82 28 -85 10 -105 -14 -15 -21 -47 -28 -130
l-10 -110 -58 0 c-74 0 -79 20 -13 45 45 17 46 18 40 54 -3 20 -9 102 -13 184
l-6 147 24 0 c21 0 28 -10 54 -85z"/>
<path d="M8457 6576 c-94 -34 -164 -100 -217 -206 -52 -104 -75 -222 -66 -350
20 -293 21 -266 -8 -295 -19 -19 -32 -24 -47 -20 -15 5 -19 4 -15 -4 4 -6 23
-11 42 -11 44 0 41 -18 -7 -42 l-34 -18 30 0 c17 0 41 7 53 16 13 9 22 11 22
4 0 -6 -7 -13 -15 -16 -29 -12 -15 -23 17 -13 22 6 34 5 39 -3 4 -6 14 -8 23
-5 13 5 16 -1 16 -38 0 -59 -15 -95 -39 -95 -11 0 -43 -9 -70 -20 -28 -10
-112 -38 -187 -60 -201 -60 -255 -93 -311 -190 -22 -37 -110 -300 -138 -410
-9 -36 -43 -148 -77 -250 -59 -180 -60 -187 -56 -270 3 -55 14 -112 31 -160
14 -41 38 -115 53 -165 31 -103 59 -165 76 -165 6 0 22 9 34 21 l23 21 19 -38
c27 -53 72 -78 126 -71 l43 6 -23 -77 c-29 -102 -94 -406 -94 -443 0 -21 6
-30 23 -34 21 -6 22 -9 15 -88 -12 -150 -30 -789 -26 -980 2 -153 6 -190 18
-197 8 -6 49 -9 92 -9 42 1 82 -2 88 -6 10 -6 11 -43 6 -154 -7 -152 2 -295
30 -456 24 -137 100 -414 146 -534 35 -90 41 -119 43 -191 1 -47 5 -97 9 -111
8 -29 -44 -191 -96 -296 -17 -34 -33 -83 -35 -108 l-6 -45 182 0 181 0 0 71
c0 94 17 195 46 282 33 97 31 126 -17 225 -50 103 -59 177 -48 377 14 249 11
369 -16 550 -14 94 -25 205 -25 248 l0 77 113 0 c79 0 134 6 187 20 82 22 160
26 160 9 0 -6 22 -58 49 -117 58 -126 75 -204 95 -432 9 -100 23 -192 36 -235
56 -184 101 -355 106 -411 6 -56 4 -68 -25 -125 -40 -80 -40 -125 1 -226 27
-68 32 -93 36 -195 l4 -118 185 0 186 0 -7 32 c-3 17 -29 81 -57 142 -100 218
-113 344 -66 631 55 337 56 565 2 747 -25 81 -65 273 -65 308 0 14 10 20 40
25 48 8 49 15 21 161 -12 62 -22 165 -25 274 -4 96 -12 211 -20 255 -13 78
-13 80 8 95 64 44 73 62 79 177 4 62 1 139 -5 182 -10 71 -10 74 12 91 22 17
22 18 22 291 -2 826 -37 1487 -89 1693 -18 75 -40 118 -93 185 -49 62 -75 74
-201 96 -52 9 -109 21 -127 26 -34 11 -138 71 -159 92 -18 18 -20 59 -4 65 10
3 12 -1 8 -17 -6 -24 -3 -25 25 -10 18 10 20 9 14 -6 -5 -13 -2 -16 11 -10 10
4 32 8 48 11 65 8 139 132 186 312 25 96 27 277 4 366 -40 153 -169 298 -291
327 -27 7 -70 20 -96 30 -55 22 -108 24 -161 5z m312 -1141 c17 -19 38 -61 47
-93 9 -31 23 -70 31 -86 l15 -28 -79 4 c-43 3 -85 8 -93 12 -12 5 -19 -3 -28
-28 -7 -20 -31 -51 -53 -70 -50 -42 -73 -112 -124 -366 -43 -213 -45 -223 -50
-219 -2 3 -18 90 -35 194 -17 105 -40 230 -52 279 -18 80 -25 93 -64 131 -30
29 -47 57 -56 88 -10 37 -15 44 -25 35 -16 -13 -123 -15 -142 -3 -25 15 153
175 194 175 3 0 5 -15 5 -33 0 -56 27 -128 79 -210 27 -43 59 -105 71 -137 12
-33 24 -60 26 -60 2 0 21 26 41 58 20 31 55 80 77 107 90 108 166 232 166 270
0 24 16 18 49 -20z m-859 -771 c5 -38 19 -102 32 -142 21 -70 21 -76 8 -195
-8 -67 -15 -142 -16 -167 -3 -133 -3 -135 -28 -150 -13 -8 -41 -28 -61 -45
l-37 -29 -24 27 c-14 16 -24 41 -24 58 0 16 -10 49 -21 71 -25 49 -59 184 -59
234 0 49 42 145 103 238 30 45 66 103 82 129 15 26 29 46 32 44 2 -3 8 -36 13
-73z m1190 -685 c19 -68 63 -691 45 -629 -8 27 -44 382 -50 485 -3 55 -8 119
-10 143 -6 53 1 54 15 1z m110 -869 c24 -8 24 -8 -7 -9 -17 -1 -35 4 -38 9 -7
11 9 11 45 0z"/>
<path d="M3572 6509 c-53 -26 -123 -102 -158 -170 -60 -120 -81 -324 -63 -619
6 -113 12 -236 13 -274 l1 -70 -65 -12 c-106 -20 -199 -60 -256 -111 -11 -10
-39 -54 -62 -97 -30 -59 -38 -84 -31 -97 6 -12 0 -38 -22 -91 -17 -40 -34 -77
-39 -81 -4 -5 -27 14 -51 42 l-44 49 -258 28 c-224 24 -259 26 -272 13 -12
-12 15 -44 206 -241 120 -125 219 -231 219 -236 0 -5 -18 -50 -40 -101 -23
-50 -43 -112 -47 -139 -5 -42 -2 -52 22 -80 32 -39 77 -52 176 -52 65 0 85 5
135 30 l59 29 40 -39 c33 -32 52 -42 108 -54 37 -7 71 -16 74 -19 8 -9 -16
-74 -69 -187 -79 -166 -99 -221 -87 -236 8 -10 4 -34 -14 -91 -14 -43 -28 -89
-31 -103 -16 -77 -37 -315 -46 -535 -10 -219 -19 -352 -37 -501 l-5 -41 46 -7
c25 -3 66 -9 89 -12 l44 -6 22 -106 c12 -58 26 -153 31 -211 5 -58 14 -138 19
-178 8 -55 7 -99 -4 -190 -17 -139 -19 -247 -5 -363 22 -178 64 -420 96 -554
26 -105 31 -142 23 -153 -7 -8 -10 -32 -6 -61 9 -78 -19 -230 -74 -400 -16
-52 -34 -114 -38 -138 l-8 -44 171 0 172 0 11 43 c13 45 25 250 26 437 1 114
-13 190 -35 190 -16 0 -1 272 24 455 16 117 21 211 23 425 l2 275 28 75 c27
70 29 87 33 263 l4 187 44 0 c24 0 47 0 52 0 4 0 10 -41 14 -92 15 -187 29
-282 49 -327 31 -71 49 -199 59 -416 6 -138 19 -259 40 -390 17 -104 34 -250
37 -323 6 -124 5 -134 -14 -151 -14 -13 -22 -39 -27 -82 -4 -35 -14 -81 -22
-103 -7 -23 -14 -69 -14 -103 0 -60 -5 -89 -36 -215 -8 -32 -14 -71 -14 -87 0
-62 -5 -61 190 -61 l179 0 -5 148 c-3 81 -10 165 -16 187 -6 22 -11 121 -11
225 1 181 1 188 41 355 53 221 66 340 67 620 0 198 -3 244 -21 330 -19 87 -21
125 -18 289 2 104 6 197 9 207 4 12 20 21 43 25 20 3 53 10 72 15 l35 8 -2
253 c-4 367 -33 733 -74 936 -6 29 -8 59 -5 67 2 7 -4 42 -15 77 -20 68 -63
268 -57 272 2 2 44 8 95 14 51 7 128 25 171 41 44 16 105 34 137 40 78 15 99
31 115 86 24 87 -4 335 -55 475 -9 25 -25 104 -36 175 -11 72 -27 155 -36 185
-8 30 -15 73 -14 94 0 22 -2 42 -7 45 -4 3 -24 32 -45 64 -67 103 -102 135
-174 157 -36 11 -93 20 -128 20 l-64 0 -5 43 c-3 23 -8 114 -11 202 -16 435
-91 730 -208 819 -60 46 -96 55 -215 55 -89 0 -117 -4 -150 -20z m516 -1163
c39 -39 72 -73 72 -76 0 -12 -78 -2 -109 14 -33 18 -51 14 -51 -9 0 -8 -13
-24 -30 -36 -55 -41 -127 -304 -159 -584 -21 -172 -21 -173 -46 -53 -33 151
-120 467 -146 527 -12 28 -27 51 -33 51 -6 0 -20 13 -30 29 l-20 29 -38 -24
c-54 -34 -92 -48 -86 -32 3 7 15 44 28 82 15 47 36 84 63 113 l41 45 13 -63
c10 -48 27 -85 77 -159 35 -53 80 -134 100 -181 21 -46 41 -88 46 -93 4 -4 13
18 20 50 21 108 51 196 100 289 29 57 51 113 55 145 l7 52 27 -23 c14 -13 59
-55 99 -93z m-849 -552 c11 -25 24 -69 27 -97 7 -49 6 -51 -10 -34 -20 20 -30
21 -56 7 -10 -5 -25 -7 -33 -4 -12 4 -10 17 14 72 16 37 29 75 29 85 0 27 8
20 29 -29z m1136 -215 c30 -107 55 -202 55 -211 0 -11 -17 -25 -46 -38 -58
-25 -176 -62 -181 -56 -6 6 9 83 63 329 20 88 46 178 51 173 2 -2 29 -91 58
-197z"/>
</g>
</svg>
